<svg id="Layer_1" data-name="Layer 1" xmlns="http://www.w3.org/2000/svg" viewBox="0 0 469.41 380.06"><defs><style>.cls-1{fill:#7b5a44;}.cls-1,.cls-76{stroke:#000;stroke-miterlimit:10;stroke-width:3px;}.cls-2{fill:#7c5b45;}.cls-3{fill:#7d5c45;}.cls-4{fill:#7e5d46;}.cls-5{fill:#7f5d46;}.cls-6{fill:#805e47;}.cls-7{fill:#815f47;}.cls-8{fill:#826048;}.cls-9{fill:#836148;}.cls-10{fill:#846249;}.cls-11{fill:#856349;}.cls-12{fill:#86644a;}.cls-13{fill:#87644a;}.cls-14{fill:#88654b;}.cls-15{fill:#89664c;}.cls-16{fill:#8a674c;}.cls-17{fill:#8b684d;}.cls-18{fill:#8c694d;}.cls-19{fill:#8d6a4e;}.cls-20{fill:#8e6a4e;}.cls-21{fill:#8f6b4f;}.cls-22{fill:#906c4f;}.cls-23{fill:#916d50;}.cls-24{fill:#926e50;}.cls-25{fill:#936f51;}.cls-26{fill:#947052;}.cls-27{fill:#957052;}.cls-28{fill:#967153;}.cls-29{fill:#977253;}.cls-30{fill:#987354;}.cls-31{fill:#997454;}.cls-32{fill:#9a7555;}.cls-33{fill:#9b7655;}.cls-34{fill:#9c7756;}.cls-35{fill:#9d7756;}.cls-36{fill:#9e7857;}.cls-37{fill:#9f7957;}.cls-38{fill:#a07a58;}.cls-39{fill:#a07b59;}.cls-40{fill:#a17c59;}.cls-41{fill:#a27d5a;}.cls-42{fill:#a37d5a;}.cls-43{fill:#a47e5b;}.cls-44{fill:#a57f5b;}.cls-45{fill:#a6805c;}.cls-46{fill:#a7815c;}.cls-47{fill:#a8825d;}.cls-48{fill:#a9835d;}.cls-49{fill:#aa845e;}.cls-50{fill:#ab845e;}.cls-51{fill:#ac855f;}.cls-52{fill:#ad8660;}.cls-53{fill:#ae8760;}.cls-54{fill:#af8861;}.cls-55{fill:#b08961;}.cls-56{fill:#b18a62;}.cls-57{fill:#b28a62;}.cls-58{fill:#b38b63;}.cls-59{fill:#b48c63;}.cls-60{fill:#b58d64;}.cls-61{fill:#b68e64;}.cls-62{fill:#b78f65;}.cls-63{fill:#b89066;}.cls-64{fill:#b99066;}.cls-65{fill:#ba9167;}.cls-66{fill:#bb9267;}.cls-67{fill:#bc9368;}.cls-68{fill:#bd9468;}.cls-69{fill:#be9569;}.cls-70{fill:#bf9669;}.cls-71{fill:#c0976a;}.cls-72{fill:#c1976a;}.cls-73{fill:#c2986b;}.cls-74{fill:#c3996b;}.cls-75{fill:#c49a6c;}.cls-76,.cls-77{fill:#fff;}</style></defs><circle class="cls-1" cx="210.72" cy="37.22" r="35.71"/><path class="cls-2" d="M464,295.76a35.27,35.27,0,1,1-38-32.38A35.28,35.28,0,0,1,464,295.76Z" transform="translate(-218.48 -261.54)"/><path class="cls-3" d="M463.16,295.76a34.84,34.84,0,1,1-37.5-32.17A34.87,34.87,0,0,1,463.16,295.76Z" transform="translate(-218.48 -261.54)"/><path class="cls-4" d="M462.34,295.75c1.52,19.23-12.13,35.71-31.19,37.49a34.84,34.84,0,0,1-5.76-69.44A34.2,34.2,0,0,1,462.34,295.75Z" transform="translate(-218.48 -261.54)"/><path class="cls-5" d="M461.53,295.75c1.43,19.09-11.86,35.3-30.73,37.13s-35.47-12.52-37-31.47c-1.46-19.25,12.38-35.81,31.29-37.4C443.84,262.44,460.07,276.35,461.53,295.75Z" transform="translate(-218.48 -261.54)"/><path class="cls-6" d="M460.71,295.75c1.38,18.94-11.59,34.89-30.26,36.76s-35.15-12.4-36.57-31.19c-1.45-19.14,12.25-35.53,31-37.1C443.33,262.66,459.31,276.41,460.71,295.75Z" transform="translate(-218.48 -261.54)"/><path class="cls-7" d="M459.9,295.74c1.32,18.8-11.32,34.53-29.8,36.4s-34.79-12.29-36.17-30.9c-1.41-19,12.11-35.25,30.65-36.81C442.82,262.89,458.54,276.47,459.9,295.74Z" transform="translate(-218.48 -261.54)"/><path class="cls-8" d="M459.08,295.74c1.27,18.65-11,34.13-29.33,36S395.32,319.58,394,301.15c-1.37-18.93,12-35,30.31-36.51C442.32,263.12,457.77,276.53,459.08,295.74Z" transform="translate(-218.48 -261.54)"/><path class="cls-9" d="M458.26,295.73c1.22,18.52-10.77,33.73-28.86,35.67-17.93,1.92-34.07-12.08-35.36-30.34-1.33-18.83,11.83-34.69,30-36.21C441.81,263.35,457,276.59,458.26,295.73Z" transform="translate(-218.48 -261.54)"/><path class="cls-10" d="M457.45,295.73c1.16,18.37-10.5,33.33-28.4,35.3-17.72,2-33.71-12-35-30-1.28-18.73,11.69-34.41,29.67-35.92C441.3,263.58,456.24,276.65,457.45,295.73Z" transform="translate(-218.48 -261.54)"/><path class="cls-11" d="M456.63,295.72c1.11,18.23-10.22,32.94-27.92,34.94-17.51,2-33.36-11.86-34.56-29.77-1.25-18.62,11.55-34.13,29.34-35.62C440.8,263.81,455.48,276.71,456.63,295.72Z" transform="translate(-218.48 -261.54)"/><path class="cls-12" d="M455.82,295.72c1.05,18.08-10,32.53-27.46,34.58-17.3,2-33-11.76-34.16-29.5-1.21-18.52,11.41-33.84,29-35.32C440.29,264,454.71,276.77,455.82,295.72Z" transform="translate(-218.48 -261.54)"/><path class="cls-13" d="M455,295.72c1,17.94-9.68,32.13-27,34.21-17.08,2.05-32.64-11.65-33.75-29.21-1.17-18.42,11.27-33.57,28.69-35C439.78,264.27,454,276.83,455,295.72Z" transform="translate(-218.48 -261.54)"/><path class="cls-14" d="M454.19,295.71c.94,17.8-9.42,31.73-26.53,33.85-16.86,2.08-32.28-11.54-33.35-28.93-1.13-18.31,11.13-33.29,28.36-34.74C439.28,264.5,453.18,276.88,454.19,295.71Z" transform="translate(-218.48 -261.54)"/><path class="cls-15" d="M453.37,295.71c.89,17.65-9.14,31.33-26.06,33.48-16.65,2.12-31.92-11.43-32.95-28.64-1.08-18.22,11-33,28-34.45C438.77,264.73,452.42,276.94,453.37,295.71Z" transform="translate(-218.48 -261.54)"/><path class="cls-16" d="M452.55,295.7c.85,17.51-8.86,30.93-25.59,33.12-16.43,2.15-31.56-11.32-32.54-28.36-1.05-18.11,10.85-32.73,27.71-34.15C438.26,265,451.65,277,452.55,295.7Z" transform="translate(-218.48 -261.54)"/><path class="cls-17" d="M451.74,295.7c.79,17.37-8.6,30.53-25.13,32.75-16.21,2.19-31.2-11.21-32.14-28.08-1-18,10.72-32.45,27.39-33.85C437.76,265.19,450.89,277.06,451.74,295.7Z" transform="translate(-218.48 -261.54)"/><path class="cls-18" d="M450.92,295.69c.74,17.23-8.32,30.13-24.66,32.39-16,2.22-30.84-11.1-31.74-27.79-.95-17.91,10.58-32.17,27.07-33.56C437.25,265.41,450.13,277.12,450.92,295.69Z" transform="translate(-218.48 -261.54)"/><path class="cls-19" d="M450.11,295.69c.68,17.08-8.05,29.73-24.19,32-15.79,2.24-30.49-11-31.34-27.52-.92-17.8,10.43-31.89,26.73-33.26C436.74,265.64,449.36,277.18,450.11,295.69Z" transform="translate(-218.48 -261.54)"/><path class="cls-20" d="M449.29,295.68c.64,16.94-7.78,29.33-23.72,31.67-15.57,2.28-30.13-10.9-30.94-27.23-.87-17.7,10.3-31.61,26.41-33C436.23,265.87,448.6,277.24,449.29,295.68Z" transform="translate(-218.48 -261.54)"/><path class="cls-21" d="M448.48,295.68c.58,16.8-7.51,28.93-23.26,31.3-15.36,2.31-29.77-10.79-30.54-27-.83-17.6,10.16-31.33,26.09-32.67C435.73,266.1,447.84,277.3,448.48,295.68Z" transform="translate(-218.48 -261.54)"/><path class="cls-22" d="M447.66,295.68c.53,16.65-7.23,28.52-22.79,30.93-15.14,2.34-29.41-10.68-30.13-26.67-.79-17.49,10-31.05,25.76-32.37C435.22,266.33,447.07,277.35,447.66,295.68Z" transform="translate(-218.48 -261.54)"/><path class="cls-23" d="M446.84,295.67c.49,16.51-7,28.13-22.32,30.57-14.93,2.38-29-10.57-29.73-26.38-.75-17.4,9.88-30.77,25.44-32.08C434.71,266.56,446.31,277.41,446.84,295.67Z" transform="translate(-218.48 -261.54)"/><path class="cls-24" d="M446,295.67c.43,16.36-6.69,27.72-21.86,30.2-14.71,2.41-28.69-10.46-29.33-26.1-.7-17.29,9.75-30.49,25.11-31.78C434.21,266.79,445.55,277.47,446,295.67Z" transform="translate(-218.48 -261.54)"/><path class="cls-25" d="M445.21,295.66c.38,16.22-6.42,27.33-21.39,29.84-14.49,2.44-28.33-10.35-28.92-25.82-.66-17.18,9.6-30.21,24.78-31.48C433.7,267,444.78,277.53,445.21,295.66Z" transform="translate(-218.48 -261.54)"/><path class="cls-26" d="M444.4,295.66c.33,16.08-6.15,26.92-20.93,29.48-14.28,2.47-28-10.25-28.52-25.54-.62-17.09,9.47-29.93,24.46-31.19C433.19,267.25,444,277.59,444.4,295.66Z" transform="translate(-218.48 -261.54)"/><path class="cls-27" d="M443.58,295.65c.28,15.94-5.87,26.52-20.45,29.12-14.07,2.5-27.61-10.14-28.12-25.26-.58-17,9.32-29.65,24.13-30.89C432.69,267.48,443.26,277.65,443.58,295.65Z" transform="translate(-218.48 -261.54)"/><path class="cls-28" d="M442.76,295.65c.24,15.79-5.59,26.12-20,28.75-13.85,2.53-27.25-10-27.72-25-.53-16.89,9.18-29.38,23.81-30.6C432.18,267.71,442.5,277.7,442.76,295.65Z" transform="translate(-218.48 -261.54)"/><path class="cls-29" d="M442,295.64c.18,15.65-5.33,25.72-19.52,28.39-13.63,2.56-26.89-9.93-27.32-24.69-.49-16.78,9.05-29.09,23.48-30.31C431.67,267.93,441.74,277.76,442,295.64Z" transform="translate(-218.48 -261.54)"/><path class="cls-30" d="M441.13,295.64c.14,15.5-5.05,25.32-19.05,28-13.42,2.6-26.52-9.82-26.91-24.41-.45-16.67,8.9-28.81,23.15-30C431.17,268.16,441,277.82,441.13,295.64Z" transform="translate(-218.48 -261.54)"/><path class="cls-31" d="M440.32,295.64c.09,15.35-4.78,24.91-18.59,27.65-13.2,2.63-26.16-9.71-26.51-24.12-.4-16.58,8.77-28.53,22.83-29.72C430.66,268.39,440.21,277.88,440.32,295.64Z" transform="translate(-218.48 -261.54)"/><path class="cls-32" d="M439.5,295.63c0,15.22-4.51,24.51-18.12,27.29-13,2.66-25.8-9.6-26.11-23.84-.35-16.47,8.63-28.25,22.51-29.42C430.15,268.62,439.45,277.94,439.5,295.63Z" transform="translate(-218.48 -261.54)"/><path class="cls-33" d="M438.69,295.63c0,15.07-4.24,24.11-17.66,26.93-12.77,2.68-25.43-9.5-25.7-23.57-.32-16.37,8.49-28,22.18-29.12C429.65,268.85,438.69,278,438.69,295.63Z" transform="translate(-218.48 -261.54)"/><path class="cls-34" d="M437.87,295.62c-.05,14.93-4,23.71-17.19,26.57-12.55,2.71-25.07-9.39-25.3-23.28-.27-16.27,8.35-27.69,21.86-28.83C429.14,269.08,437.93,278.05,437.87,295.62Z" transform="translate(-218.48 -261.54)"/><path class="cls-35" d="M437.05,295.62c-.1,14.78-3.69,23.3-16.71,26.2-12.34,2.74-24.72-9.29-24.91-23-.22-16.16,8.22-27.41,21.53-28.53C428.63,269.31,437.17,278.11,437.05,295.62Z" transform="translate(-218.48 -261.54)"/><path class="cls-36" d="M436.24,295.61c-.15,14.64-3.42,22.9-16.25,25.84-12.13,2.77-24.35-9.18-24.5-22.71-.18-16.07,8.07-27.14,21.2-28.24C428.13,269.54,436.41,278.17,436.24,295.61Z" transform="translate(-218.48 -261.54)"/><path class="cls-37" d="M435.42,295.61c-.19,14.49-3.14,22.5-15.78,25.47-11.91,2.81-24-9.07-24.1-22.43-.13-16,7.93-26.85,20.88-27.94C427.62,269.77,435.66,278.23,435.42,295.61Z" transform="translate(-218.48 -261.54)"/><path class="cls-38" d="M434.61,295.6c-.24,14.36-2.87,22.1-15.32,25.11-11.69,2.84-23.62-9-23.7-22.15-.08-15.86,7.8-26.57,20.56-27.64C427.11,270,434.9,278.28,434.61,295.6Z" transform="translate(-218.48 -261.54)"/><path class="cls-39" d="M433.79,295.6c-.28,14.21-2.6,21.69-14.85,24.75-11.47,2.86-23.26-8.86-23.29-21.87,0-15.76,7.65-26.29,20.23-27.35C426.61,270.23,434.14,278.34,433.79,295.6Z" transform="translate(-218.48 -261.54)"/><path class="cls-40" d="M433,295.6c-.33,14.06-2.33,21.28-14.39,24.38-11.26,2.89-22.89-8.75-22.89-21.59,0-15.66,7.52-26,19.9-27.05C426.1,270.46,433.38,278.4,433,295.6Z" transform="translate(-218.48 -261.54)"/><path class="cls-41" d="M432.16,295.59c-.38,13.92-2.05,20.88-13.92,24-11,2.92-22.53-8.65-22.48-21.31.05-15.55,7.37-25.73,19.57-26.75C425.59,270.68,432.62,278.46,432.16,295.59Z" transform="translate(-218.48 -261.54)"/><path class="cls-42" d="M431.34,295.59c-.42,13.77-1.77,20.47-13.45,23.65-10.82,2.94-22.16-8.54-22.08-21,.1-15.46,7.24-25.45,19.25-26.46C425.09,270.91,431.87,278.51,431.34,295.59Z" transform="translate(-218.48 -261.54)"/><path class="cls-43" d="M430.53,295.58c-.47,13.63-1.51,20.08-13,23.29-10.62,3-21.8-8.43-21.69-20.74C396,282.78,403,273,414.79,272,424.58,271.14,431.11,278.57,430.53,295.58Z" transform="translate(-218.48 -261.54)"/><path class="cls-44" d="M429.71,295.58c-.51,13.48-1.23,19.67-12.51,22.92-10.4,3-21.44-8.32-21.28-20.45.19-15.25,7-24.9,18.6-25.87C424.07,271.37,430.35,278.63,429.71,295.58Z" transform="translate(-218.48 -261.54)"/><path class="cls-45" d="M428.9,295.57c-.55,13.35-1,19.27-12,22.56-10.18,3-21.07-8.21-20.88-20.17.24-15.15,6.82-24.61,18.27-25.58C423.57,271.6,429.6,278.69,428.9,295.57Z" transform="translate(-218.48 -261.54)"/><path class="cls-46" d="M428.08,295.57c-.59,13.2-.68,18.86-11.58,22.2-10,3.05-20.7-8.12-20.48-19.9.29-15,6.69-24.33,18-25.28C423.06,271.83,428.84,278.75,428.08,295.57Z" transform="translate(-218.48 -261.54)"/><path class="cls-47" d="M427.27,295.57c-.64,13.05-.42,18.45-11.12,21.83-9.75,3.08-20.33-8-20.07-19.61.33-15,6.54-24.05,17.62-25C422.55,272.06,428.09,278.8,427.27,295.57Z" transform="translate(-218.48 -261.54)"/><path class="cls-48" d="M426.45,295.56c-.68,12.91-.14,18-10.65,21.47-9.53,3.1-20-7.9-19.67-19.33.39-14.84,6.4-23.77,17.3-24.69C422.05,272.29,427.33,278.86,426.45,295.56Z" transform="translate(-218.48 -261.54)"/><path class="cls-49" d="M425.63,295.56c-.72,12.76.14,17.63-10.18,21.1-9.31,3.13-19.6-7.79-19.27-19.05.44-14.74,6.27-23.49,17-24.39C421.54,272.52,426.58,278.92,425.63,295.56Z" transform="translate(-218.48 -261.54)"/><path class="cls-50" d="M424.82,295.55c-.77,12.62.41,17.23-9.72,20.74-9.1,3.16-19.23-7.68-18.86-18.76.48-14.64,6.12-23.21,16.64-24.1C421,272.75,425.82,279,424.82,295.55Z" transform="translate(-218.48 -261.54)"/><path class="cls-51" d="M424,295.55c-.8,12.48.68,16.82-9.24,20.37-8.89,3.18-18.87-7.57-18.47-18.48.54-14.54,6-22.93,16.32-23.8C420.53,273,425.07,279,424,295.55Z" transform="translate(-218.48 -261.54)"/><path class="cls-52" d="M423.19,295.54c-.85,12.34.95,16.42-8.78,20-8.67,3.21-18.5-7.47-18.07-18.19.59-14.44,5.85-22.66,16-23.51C420,273.2,424.32,279.09,423.19,295.54Z" transform="translate(-218.48 -261.54)"/><path class="cls-53" d="M422.37,295.54c-.89,12.19,1.23,16-8.31,19.65-8.46,3.22-18.13-7.37-17.66-17.92.63-14.34,5.71-22.37,15.67-23.21C419.51,273.43,423.56,279.15,422.37,295.54Z" transform="translate(-218.48 -261.54)"/><path class="cls-54" d="M421.56,295.53c-.93,12.05,1.49,15.6-7.85,19.29-8.24,3.25-17.76-7.26-17.26-17.64.69-14.23,5.57-22.09,15.35-22.91C419,273.66,422.81,279.21,421.56,295.53Z" transform="translate(-218.48 -261.54)"/><path class="cls-55" d="M420.74,295.53c-1,11.9,1.77,15.19-7.38,18.92-8,3.27-17.39-7.15-16.85-17.35.74-14.13,5.43-21.82,15-22.62C418.5,273.89,422.06,279.27,420.74,295.53Z" transform="translate(-218.48 -261.54)"/><path class="cls-56" d="M419.92,295.53c-1,11.75,2.05,14.77-6.91,18.55-7.81,3.3-17-7-16.45-17.07.79-14,5.29-21.53,14.69-22.32C418,274.12,421.31,279.33,419.92,295.53Z" transform="translate(-218.48 -261.54)"/><path class="cls-57" d="M419.11,295.52c-1.05,11.62,2.31,14.36-6.45,18.19-7.59,3.32-16.65-6.93-16.05-16.79.85-13.92,5.15-21.25,14.37-22C417.48,274.35,420.56,279.38,419.11,295.52Z" transform="translate(-218.48 -261.54)"/><path class="cls-58" d="M418.29,295.52c-1.08,11.47,2.59,14-6,17.82-7.37,3.34-16.27-6.83-15.64-16.5.9-13.83,5-21,14-21.73C417,274.58,419.81,279.44,418.29,295.52Z" transform="translate(-218.48 -261.54)"/><path class="cls-59" d="M417.48,295.51c-1.13,11.33,2.86,13.54-5.51,17.46-7.17,3.36-15.91-6.72-15.25-16.22,1-13.72,4.87-20.69,13.72-21.43C416.47,274.81,419.06,279.5,417.48,295.51Z" transform="translate(-218.48 -261.54)"/><path class="cls-60" d="M416.66,295.51c-1.16,11.18,3.13,13.12-5,17.1-6.95,3.37-15.54-6.62-14.85-15.94,1-13.63,4.74-20.42,13.4-21.14C416,275,418.32,279.56,416.66,295.51Z" transform="translate(-218.48 -261.54)"/><path class="cls-61" d="M415.85,295.5c-1.2,11,3.4,12.72-4.58,16.74-6.74,3.39-15.17-6.51-14.44-15.66,1.07-13.52,4.59-20.13,13.06-20.85C415.46,275.27,417.57,279.62,415.85,295.5Z" transform="translate(-218.48 -261.54)"/><path class="cls-62" d="M415,295.5c-1.24,10.9,3.67,12.3-4.11,16.37-6.52,3.41-14.79-6.4-14-15.38,1.13-13.41,4.46-19.85,12.74-20.55C415,275.5,416.82,279.68,415,295.5Z" transform="translate(-218.48 -261.54)"/><path class="cls-63" d="M414.21,295.49c-1.27,10.76,3.94,11.89-3.64,16-6.31,3.43-14.42-6.29-13.64-15.09,1.19-13.32,4.32-19.58,12.42-20.26C414.44,275.73,416.08,279.74,414.21,295.49Z" transform="translate(-218.48 -261.54)"/><path class="cls-64" d="M413.4,295.49c-1.31,10.61,4.21,11.46-3.18,15.64-6.1,3.45-14-6.18-13.23-14.81,1.24-13.21,4.18-19.29,12.09-20C413.94,276,415.33,279.8,413.4,295.49Z" transform="translate(-218.48 -261.54)"/><path class="cls-65" d="M412.58,295.49c-1.34,10.47,4.48,11-2.71,15.27-5.88,3.47-13.67-6.08-12.83-14.53,1.3-13.1,4-19,11.77-19.66C413.43,276.18,414.59,279.86,412.58,295.49Z" transform="translate(-218.48 -261.54)"/><path class="cls-66" d="M411.77,295.48c-1.38,10.33,4.74,10.63-2.25,14.91-5.67,3.49-13.29-6-12.43-14.24,1.37-13,3.9-18.73,11.44-19.37C412.92,276.41,413.85,279.92,411.77,295.48Z" transform="translate(-218.48 -261.54)"/><path class="cls-67" d="M411,295.48c-1.41,10.18,5,10.21-1.77,14.55-5.47,3.49-12.93-5.87-12-14,1.42-12.9,3.76-18.45,11.11-19.07C412.42,276.64,413.1,280,411,295.48Z" transform="translate(-218.48 -261.54)"/><path class="cls-68" d="M410.14,295.47c-1.45,10,5.27,9.79-1.31,14.19-5.26,3.51-12.55-5.76-11.63-13.68,1.49-12.8,3.62-18.18,10.79-18.78C411.91,276.87,412.36,280,410.14,295.47Z" transform="translate(-218.48 -261.54)"/><path class="cls-69" d="M409.32,295.47c-1.48,9.9,5.54,9.37-.84,13.82-5.05,3.52-12.17-5.65-11.22-13.4,1.55-12.7,3.48-17.89,10.46-18.48C411.4,277.1,411.62,280.1,409.32,295.47Z" transform="translate(-218.48 -261.54)"/><path class="cls-70" d="M408.5,295.46c-1.51,9.76,5.81,9-.37,13.46-4.84,3.54-11.79-5.54-10.82-13.12,1.62-12.59,3.34-17.61,10.14-18.18C410.9,277.33,410.88,280.16,408.5,295.46Z" transform="translate(-218.48 -261.54)"/><path class="cls-71" d="M407.69,295.46c-1.55,9.61,6.06,8.52.09,13.09-4.63,3.55-11.42-5.43-10.42-12.83,1.69-12.49,3.21-17.34,9.81-17.89C410.39,277.56,410.15,280.22,407.69,295.46Z" transform="translate(-218.48 -261.54)"/><path class="cls-72" d="M406.87,295.45c-1.58,9.48,6.33,8.1.56,12.73-4.43,3.56-11-5.32-10-12.55,1.75-12.38,3.06-17.05,9.48-17.59C409.88,277.79,409.41,280.28,406.87,295.45Z" transform="translate(-218.48 -261.54)"/><path class="cls-73" d="M406.06,295.45c-1.62,9.33,6.58,7.67,1,12.36-4.22,3.58-10.66-5.21-9.61-12.26,1.82-12.28,2.93-16.78,9.16-17.3C409.38,278,408.67,280.34,406.06,295.45Z" transform="translate(-218.48 -261.54)"/><path class="cls-74" d="M405.24,295.45c-1.63,9.19,6.84,7.24,1.49,12-4,3.58-10.28-5.11-9.21-12,1.9-12.17,2.79-16.49,8.84-17C408.87,278.25,408,280.41,405.24,295.45Z" transform="translate(-218.48 -261.54)"/><path class="cls-75" d="M404.43,295.44c-1.68,9.05,7.08,6.82,2,11.64-3.83,3.59-9.91-5-8.81-11.71,2-12.06,2.65-16.21,8.51-16.7C408.36,278.47,407.2,280.47,404.43,295.44Z" transform="translate(-218.48 -261.54)"/><path class="cls-1" d="M671.74,462c51.64,151.7-36.85,159-208.19,173C310.36,647.61,193,647.89,225.37,499.56c18.71-85.81,89.34-90.94,212.6-101.31S646.32,387.33,671.74,462Z" transform="translate(-218.48 -261.54)"/><path class="cls-2" d="M666.29,463.21c51,150.08-36.06,157.7-205.22,171.58C309.81,647.2,193.74,647.26,225.51,500.52c18.33-85,88.15-91.11,210.17-101.24C557.41,389.08,641.13,389.12,666.29,463.21Z" transform="translate(-218.48 -261.54)"/><path class="cls-3" d="M660.84,464.41c50.41,148.46-35.28,156.43-202.25,170.13-149.33,12.25-264.16,12.1-232.94-133.06,17.95-84.29,87-91.27,207.74-101.17C553.58,390.28,636,390.91,660.84,464.41Z" transform="translate(-218.48 -261.54)"/><path class="cls-4" d="M655.39,465.6c49.8,146.84-34.49,155.17-199.29,168.69-147.39,12.09-261,11.72-230.32-131.84C243.37,418.9,311.54,411,431.09,401.33,549.75,391.47,630.76,392.69,655.39,465.6Z" transform="translate(-218.48 -261.54)"/><path class="cls-5" d="M650,466.79C699.13,612,616.24,620.7,453.62,634,308.16,646,195.82,645.39,225.92,503.41c17.21-82.79,84.57-91.61,202.88-101.05C545.93,392.66,625.57,394.48,650,466.79Z" transform="translate(-218.48 -261.54)"/><path class="cls-6" d="M644.5,468c48.57,143.62-32.93,152.64-193.37,165.81-143.52,11.77-254.27,11-225.08-129.42,17-82,83.38-91.78,200.46-101C542.1,393.86,620.39,396.27,644.5,468Z" transform="translate(-218.48 -261.54)"/><path class="cls-7" d="M639.05,469.17c48,142-32.14,151.38-190.4,164.36-141.59,11.62-251,10.69-222.46-128.2,16.71-81.23,82.21-91.68,198-100.92C538.3,395.3,615.2,398.05,639.05,469.17Z" transform="translate(-218.48 -261.54)"/><path class="cls-8" d="M633.6,470.36c47.34,140.39-31.36,150.12-187.43,162.92-139.66,11.46-247.79,10.33-219.85-127,16.38-80.47,81-91.82,195.6-100.87C534.47,396.54,610,399.84,633.6,470.36Z" transform="translate(-218.48 -261.54)"/><path class="cls-9" d="M628.15,471.55C674.88,610.32,597.58,620.41,443.68,633,306,644.33,199.14,643,226.46,507.26c16-79.71,79.83-91.94,193.17-100.8C530.65,397.77,604.83,401.63,628.15,471.55Z" transform="translate(-218.48 -261.54)"/><path class="cls-10" d="M622.7,472.75c46.12,137.15-29.79,147.58-181.5,160-135.78,11.14-241.3,9.6-214.6-124.56,15.7-78.94,78.64-92.06,190.73-100.74C526.83,399,599.64,403.42,622.7,472.75Z" transform="translate(-218.48 -261.54)"/><path class="cls-11" d="M617.25,473.94c45.51,135.53-29,146.32-178.53,158.59-133.85,11-238.06,9.24-212-123.35C242.11,431,304.19,417,415,408.51,523,400.24,594.45,405.2,617.25,473.94Z" transform="translate(-218.48 -261.54)"/><path class="cls-12" d="M611.8,475.13c44.63,134-28.21,145.06-175.57,157.15-131.91,10.82-234.82,8.87-209.36-122.13,15-77.42,76.26-92.32,185.88-100.62C519.18,401.47,589.13,407,611.8,475.13Z" transform="translate(-218.48 -261.54)"/><path class="cls-13" d="M606.35,476.32c44,132.4-27.43,143.8-172.6,155.71-130,10.66-231.58,8.51-206.75-120.92,14.71-76.66,75.08-92.44,183.45-100.55C515.36,402.7,583.93,408.83,606.35,476.32Z" transform="translate(-218.48 -261.54)"/><path class="cls-14" d="M600.9,477.51c43.36,130.79-26.64,142.54-169.64,154.27-128,10.51-228.33,8.14-204.12-119.71,14.37-75.9,73.89-92.56,181-100.49C511.53,403.94,578.73,410.62,600.9,477.51Z" transform="translate(-218.48 -261.54)"/><path class="cls-15" d="M595.45,478.7C638.17,607.88,569.59,620,428.78,631.53,302.67,641.88,203.68,639.31,227.27,513c14-75.14,72.7-92.7,178.6-100.43C507.71,405.17,573.53,412.41,595.45,478.7Z" transform="translate(-218.48 -261.54)"/><path class="cls-16" d="M590,479.9c42.08,127.57-25.08,140-163.71,151.38C302.13,641.47,204.44,638.69,227.41,514c13.7-74.38,71.51-92.82,176.16-100.37C503.88,406.4,568.33,414.2,590,479.9Z" transform="translate(-218.48 -261.54)"/><path class="cls-17" d="M584.56,481.09C626,607.05,560.27,619.83,423.81,631c-122.23,10-218.62,7.05-196.26-116.07,13.36-73.62,70.32-93,173.73-100.3C500.06,407.63,563.13,416,584.56,481.09Z" transform="translate(-218.48 -261.54)"/><path class="cls-18" d="M579.11,482.28c40.81,124.35-23.51,137.48-157.78,148.5-120.3,9.87-215.39,6.68-193.65-114.86,13-72.85,69.13-93.07,171.31-100.24C496.24,408.86,557.94,417.78,579.11,482.28Z" transform="translate(-218.48 -261.54)"/><path class="cls-19" d="M573.66,483.47c40.18,122.74-22.72,136.21-154.81,147-118.37,9.72-212.16,6.32-191-113.63,12.69-72.1,67.94-93.2,168.87-100.18C492.41,410.09,552.74,419.57,573.66,483.47Z" transform="translate(-218.48 -261.54)"/><path class="cls-20" d="M568.21,484.66c39.55,121.13-21.94,135-151.85,145.61-116.43,9.56-208.92,6-188.41-112.42,12.36-71.34,66.76-93.33,166.45-100.12C488.59,411.32,547.54,421.36,568.21,484.66Z" transform="translate(-218.48 -261.54)"/><path class="cls-21" d="M562.76,485.85C601.68,605.37,541.61,619.54,413.88,630c-114.5,9.4-205.69,5.58-185.79-111.21,12-70.58,65.56-93.45,164-100C484.76,412.55,542.34,423.15,562.76,485.85Z" transform="translate(-218.48 -261.54)"/><path class="cls-22" d="M557.31,487C595.6,605,537,619.47,411.39,629.77,298.83,639,208.94,635,228.22,519.77c11.69-69.82,64.38-93.58,161.59-100C480.94,413.78,537.15,424.94,557.31,487Z" transform="translate(-218.48 -261.54)"/><path class="cls-23" d="M551.86,488.24c37.66,116.3-19.58,131.15-142.95,141.28-110.62,9.08-199.22,4.84-180.55-108.78,11.35-69.07,63.18-93.71,159.16-99.93C477.11,415,532,426.73,551.86,488.24Z" transform="translate(-218.48 -261.54)"/><path class="cls-24" d="M546.41,489.43c37,114.69-18.79,129.89-140,139.84-108.69,8.92-196,4.47-177.94-107.57,11-68.31,62-93.84,156.74-99.87C473.29,416.23,526.75,428.52,546.41,489.43Z" transform="translate(-218.48 -261.54)"/><path class="cls-25" d="M541,490.62c36.4,113.08-18,128.63-137,138.4-106.75,8.76-192.76,4.1-175.31-106.36,10.67-67.55,60.8-94,154.3-99.8C469.46,417.46,521.55,430.31,541,490.62Z" transform="translate(-218.48 -261.54)"/><path class="cls-26" d="M535.51,491.81c35.77,111.47-17.22,127.37-134,137-104.82,8.6-189.53,3.73-172.69-105.14,10.33-66.8,59.61-94.1,151.87-99.75C465.64,418.68,516.36,432.1,535.51,491.81Z" transform="translate(-218.48 -261.54)"/><path class="cls-27" d="M530.07,493C565.2,602.86,513.62,619.11,399,628.52,296.09,637,212.67,631.88,228.9,524.59c10-66,58.42-94.22,149.45-99.68C461.81,419.91,511.16,433.89,530.07,493Z" transform="translate(-218.48 -261.54)"/><path class="cls-28" d="M524.62,494.19C559.13,602.44,509,619,396.49,628.27c-100.95,8.29-183.08,3-167.45-102.72,9.65-65.28,57.23-94.35,147-99.62C458,421.13,506,435.68,524.62,494.19Z" transform="translate(-218.48 -261.54)"/><path class="cls-29" d="M519.17,495.39C553.05,602,504.3,619,394,628c-99,8.13-179.86,2.61-164.84-101.51C238.48,462,285.21,432,373.76,427,454.16,422.35,500.77,437.47,519.17,495.39Z" transform="translate(-218.48 -261.54)"/><path class="cls-30" d="M513.72,496.58c33.25,105-14.09,122.31-122.2,131.19-97.07,8-176.63,2.24-162.21-100.29,9-63.78,54.85-94.61,142.16-99.5C450.34,423.58,495.57,439.26,513.72,496.58Z" transform="translate(-218.48 -261.54)"/><path class="cls-31" d="M508.27,497.77C540.9,601.18,495,618.82,389,627.51c-95.14,7.82-173.42,1.87-159.6-99.07,8.63-63,53.66-94.74,139.74-99.43C446.51,424.8,490.37,441.05,508.27,497.77Z" transform="translate(-218.48 -261.54)"/><path class="cls-32" d="M502.82,499c32,101.79-12.52,119.78-116.26,128.3-93.21,7.66-170.2,1.5-157-97.86,8.29-62.26,52.47-94.87,137.3-99.37C442.69,426,485.18,442.84,502.82,499Z" transform="translate(-218.48 -261.54)"/><path class="cls-33" d="M497.37,500.15C528.75,600.33,485.64,618.67,384.07,627c-91.27,7.5-167,1.12-154.35-96.65,7.94-61.51,51.27-95,134.87-99.3C438.86,427.24,480,444.63,497.37,500.15Z" transform="translate(-218.48 -261.54)"/><path class="cls-34" d="M491.92,501.34C522.67,599.91,481,618.6,381.59,626.76c-89.34,7.34-163.77.74-151.74-95.43,7.6-60.76,50.08-95.14,132.45-99.24C435,428.46,474.79,446.42,491.92,501.34Z" transform="translate(-218.48 -261.54)"/><path class="cls-35" d="M486.47,502.53c30.13,97-10.16,116-107.37,124-87.4,7.18-160.55.37-149.11-94.22,7.25-60,48.89-95.26,130-99.18C431.21,429.67,469.59,448.21,486.47,502.53Z" transform="translate(-218.48 -261.54)"/><path class="cls-36" d="M481,503.73c29.51,95.34-9.37,114.73-104.4,122.53-85.47,7-157.34,0-146.5-93,6.91-59.25,47.7-95.39,127.59-99.11C427.38,430.89,464.4,450,481,503.73Z" transform="translate(-218.48 -261.54)"/><path class="cls-37" d="M475.57,504.92C504.46,598.64,467,618.38,374.14,626c-83.53,6.86-154.13-.39-143.88-91.79,6.56-58.5,46.5-95.53,125.16-99.06C423.55,432.11,459.2,451.79,475.57,504.92Z" transform="translate(-218.48 -261.54)"/><path class="cls-38" d="M470.13,506.11c28.26,92.11-7.81,112.2-98.48,119.65-81.59,6.7-150.92-.77-141.26-90.58,6.22-57.75,45.31-95.66,122.73-99C419.73,433.32,454,453.58,470.13,506.11Z" transform="translate(-218.48 -261.54)"/><path class="cls-39" d="M464.68,507.3c27.64,90.5-7,110.94-95.51,118.21-79.66,6.54-147.72-1.15-138.64-89.37,5.87-57,44.12-95.79,120.3-98.93C415.9,434.53,448.81,455.37,464.68,507.3Z" transform="translate(-218.48 -261.54)"/><path class="cls-40" d="M459.23,508.49c27,88.89-6.24,109.68-92.54,116.77-77.73,6.38-144.52-1.53-136-88.16,5.51-56.24,42.92-95.93,117.87-98.86C412.07,435.75,443.62,457.15,459.23,508.49Z" transform="translate(-218.48 -261.54)"/><path class="cls-41" d="M453.78,509.68C480.18,597,448.33,618.09,364.2,625c-75.79,6.22-141.31-1.92-133.4-86.94,5.17-55.5,41.73-96.07,115.44-98.81C408.24,437,438.43,458.94,453.78,509.68Z" transform="translate(-218.48 -261.54)"/><path class="cls-42" d="M448.33,510.88c25.78,85.65-4.67,107.14-86.61,113.88-73.86,6.07-138.12-2.3-130.78-85.73,4.81-54.75,40.53-96.2,113-98.74C404.42,438.17,433.23,460.73,448.33,510.88Z" transform="translate(-218.48 -261.54)"/><path class="cls-43" d="M442.88,512.07C468.05,596.1,439,618,359.23,624.5c-71.92,5.92-134.92-2.67-128.16-84.51,4.46-54,39.34-96.34,110.59-98.68C400.59,439.37,428,462.52,442.88,512.07Z" transform="translate(-218.48 -261.54)"/><path class="cls-44" d="M437.43,513.26c24.55,82.42-3.1,104.62-80.68,111C286.77,630,225,621.19,231.21,541c4.1-53.25,38.14-96.47,108.15-98.61C396.76,440.58,422.85,464.31,437.43,513.26Z" transform="translate(-218.48 -261.54)"/><path class="cls-45" d="M432,514.45c23.94,80.8-2.31,103.35-77.71,109.55-68,5.6-128.54-3.44-122.93-82.08,3.75-52.51,37-96.62,105.73-98.56C392.93,441.78,417.66,466.09,432,514.45Z" transform="translate(-218.48 -261.54)"/><path class="cls-46" d="M426.53,515.64c23.32,79.19-1.52,102.09-74.75,108.11-66.11,5.44-125.35-3.83-120.3-80.87,3.39-51.76,35.93-93.27,103.3-98.49C389,440.18,412.47,467.88,426.53,515.64Z" transform="translate(-218.48 -261.54)"/><path class="cls-47" d="M421.08,516.83c22.71,77.57-.74,100.83-71.78,106.67-64.18,5.28-122.17-4.22-117.68-79.66,3-51,34.73-93.35,100.86-98.43C385.13,441.37,407.28,469.67,421.08,516.83Z" transform="translate(-218.48 -261.54)"/><path class="cls-48" d="M415.64,518c22.09,76,0,99.57-68.82,105.23-62.25,5.12-119-4.6-115.07-78.44,2.67-50.27,33.53-93.45,98.44-98.37C381.31,442.56,402.09,471.46,415.64,518Z" transform="translate(-218.48 -261.54)"/><path class="cls-49" d="M410.19,519.22c21.48,74.33.82,98.3-65.86,103.78-60.31,5-115.81-5-112.44-77.23,2.3-49.52,32.33-93.54,96-98.31C377.48,443.75,396.9,473.24,410.19,519.22Z" transform="translate(-218.48 -261.54)"/><path class="cls-50" d="M404.74,520.41c20.87,72.71,1.61,97-62.89,102.34-58.38,4.8-112.64-5.38-109.83-76C234,498,263.15,453.1,325.6,448.49,373.66,444.94,391.71,475,404.74,520.41Z" transform="translate(-218.48 -261.54)"/><path class="cls-51" d="M399.29,521.6c20.27,71.09,2.4,95.77-59.93,100.9-56.43,4.64-109.46-5.77-107.2-74.81,1.57-48,29.92-93.73,91.15-98.18C369.84,446.13,386.52,476.82,399.29,521.6Z" transform="translate(-218.48 -261.54)"/><path class="cls-52" d="M393.84,522.79c19.66,69.48,3.18,94.51-57,99.46-54.5,4.48-106.3-6.16-104.59-73.59C233.5,501.37,261,454.82,321,450.54,366,447.33,381.33,478.6,393.84,522.79Z" transform="translate(-218.48 -261.54)"/><path class="cls-53" d="M388.39,524c19.06,67.86,4,93.25-54,98-52.57,4.32-103.14-6.55-102-72.38.83-46.54,27.51-93.95,86.29-98.06C362.19,448.53,376.15,480.39,388.39,524Z" transform="translate(-218.48 -261.54)"/><path class="cls-54" d="M382.94,525.17c18.45,66.24,4.75,92-51,96.58-50.63,4.16-100-6.94-99.34-71.17.45-45.8,26.3-94.07,83.86-98C358.37,449.73,371,482.17,382.94,525.17Z" transform="translate(-218.48 -261.54)"/><path class="cls-55" d="M377.49,526.37c17.85,64.61,5.54,90.71-48.06,95.12-48.7,4-96.83-7.33-96.73-70,.08-45,25.09-94.19,81.44-97.93C354.54,450.94,365.78,484,377.49,526.37Z" transform="translate(-218.48 -261.54)"/><path class="cls-56" d="M372,527.56c17.25,63,6.33,89.45-45.09,93.68-46.77,3.85-93.69-7.72-94.11-68.73-.31-44.32,23.88-94.33,79-97.87C350.72,452.14,360.59,485.75,372,527.56Z" transform="translate(-218.48 -261.54)"/><path class="cls-57" d="M366.59,528.75c16.65,61.37,7.11,88.19-42.13,92.24-44.83,3.7-90.54-8.11-91.49-67.52-.69-43.57,22.67-94.47,76.58-97.81C346.9,453.36,355.41,487.53,366.59,528.75Z" transform="translate(-218.48 -261.54)"/><path class="cls-58" d="M361.14,529.94c16.06,59.75,7.9,86.93-39.16,90.8-42.89,3.54-87.41-8.5-88.87-66.31-1.08-42.83,21.45-94.62,74.15-97.74C343.08,454.57,350.23,489.32,361.14,529.94Z" transform="translate(-218.48 -261.54)"/><path class="cls-59" d="M355.7,531.13c15.45,58.13,8.67,85.66-36.21,89.36-40.95,3.38-84.28-8.9-86.25-65.09-1.47-42.09,20.24-94.8,71.72-97.69C339.26,455.79,345.05,491.1,355.7,531.13Z" transform="translate(-218.48 -261.54)"/><path class="cls-60" d="M350.25,532.32c14.86,56.5,9.46,84.4-33.24,87.92-39,3.22-81.16-9.29-83.63-63.88-1.88-41.35,19-95,69.29-97.62C335.44,457,339.87,492.88,350.25,532.32Z" transform="translate(-218.48 -261.54)"/><path class="cls-61" d="M344.8,533.52c14.27,54.87,10.25,83.13-30.27,86.47-37.09,3.06-78-9.68-81-62.67-2.28-40.6,17.79-95.16,66.86-97.56C331.62,458.24,334.69,494.67,344.8,533.52Z" transform="translate(-218.48 -261.54)"/><path class="cls-62" d="M339.35,534.71c13.68,53.25,11,81.87-27.31,85-35.15,2.9-74.93-10.07-78.39-61.46-2.69-39.85,16.57-95.37,64.43-97.49C327.8,459.47,329.52,496.45,339.35,534.71Z" transform="translate(-218.48 -261.54)"/><path class="cls-63" d="M333.9,535.9c13.1,51.63,11.82,80.6-24.34,83.59-33.22,2.74-71.83-10.46-75.77-60.24-3.11-39.12,15.35-99.44,62-97.43C324,463,324.34,498.23,333.9,535.9Z" transform="translate(-218.48 -261.54)"/><path class="cls-64" d="M328.45,537.09c12.52,50,12.6,79.34-21.37,82.15-31.29,2.58-68.73-10.85-73.16-59-3.52-38.37,14.15-99.64,59.58-97.37C320.14,464.17,319.17,500,328.45,537.09Z" transform="translate(-218.48 -261.54)"/><path class="cls-65" d="M323,538.28c11.93,48.38,13.39,78.08-18.41,80.71-29.34,2.42-65.64-11.24-70.53-57.82-3.95-37.62,12.95-99.84,57.14-97.3C316.31,465.31,314,501.8,323,538.28Z" transform="translate(-218.48 -261.54)"/><path class="cls-66" d="M317.55,539.47c11.36,46.75,14.17,76.82-15.44,79.27-27.41,2.26-62.56-11.63-67.92-56.61-4.38-36.87,11.75-100.06,54.72-97.24C312.48,466.44,308.83,503.58,317.55,539.47Z" transform="translate(-218.48 -261.54)"/><path class="cls-67" d="M312.1,540.66c10.78,45.13,15,75.56-12.48,77.82-25.47,2.11-59.49-12-65.29-55.38-4.83-36.12,10.55-100.3,52.29-97.18C308.65,467.56,303.67,505.36,312.1,540.66Z" transform="translate(-218.48 -261.54)"/><path class="cls-68" d="M306.65,541.86c10.21,43.49,15.75,74.28-9.51,76.37-23.54,1.95-56.43-12.38-62.68-54.17-5.28-35.37,9.35-100.54,49.86-97.12C304.82,468.67,298.51,507.14,306.65,541.86Z" transform="translate(-218.48 -261.54)"/><path class="cls-69" d="M301.2,543.05c9.64,41.86,16.53,73-6.54,74.93-21.61,1.79-53.38-12.75-60.06-53-5.75-34.61,8.15-100.81,47.43-97C301,469.78,293.35,508.92,301.2,543.05Z" transform="translate(-218.48 -261.54)"/><path class="cls-70" d="M295.76,544.24c9.07,40.24,17.31,71.76-3.59,73.49-19.67,1.63-50.33-13.12-57.43-51.74-6.23-33.85,6.95-101.11,45-97C297.16,470.88,288.19,510.7,295.76,544.24Z" transform="translate(-218.48 -261.54)"/><path class="cls-71" d="M290.31,545.43c8.5,38.61,18.09,70.5-.62,72.05C272,619,242.39,604,234.87,567c-6.71-33.08,5.77-101.44,42.57-96.93C293.33,472,283,512.47,290.31,545.43Z" transform="translate(-218.48 -261.54)"/><path class="cls-72" d="M284.86,546.62c7.95,37,18.88,69.23,2.34,70.61-15.79,1.32-44.27-13.84-52.19-49.32C227.79,535.6,239.6,466.1,275.15,471,289.51,473,277.9,514.25,284.86,546.62Z" transform="translate(-218.48 -261.54)"/><path class="cls-73" d="M279.41,547.81c7.39,35.35,19.67,68,5.31,69.17-13.86,1.16-41.26-14.19-49.58-48.11-7.73-31.52,3.43-102.24,37.72-96.8C285.69,474.1,272.76,516,279.41,547.81Z" transform="translate(-218.48 -261.54)"/><path class="cls-74" d="M274,549c6.91,33.7,20.45,66.7,8.28,67.72-11.93,1-38.26-14.53-47-46.89-8.26-30.74,2.29-102.75,35.29-96.75C281.88,475.15,267.69,517.79,274,549Z" transform="translate(-218.48 -261.54)"/><path class="cls-75" d="M268.51,550.2c6.3,32.09,21.24,65.44,11.24,66.28s-35.26-14.86-44.34-45.68c-8.8-29.93,1.19-103.37,32.86-96.68C278.09,476.19,262.5,519.58,268.51,550.2Z" transform="translate(-218.48 -261.54)"/><path class="cls-1" d="M653.05,384.22c3.28,39-77.22,42.13-208.45,53.17s-218.22,26-221.49-13,79.16-107.9,210.39-118.93S649.77,345.24,653.05,384.22Z" transform="translate(-218.48 -261.54)"/><path class="cls-2" d="M647.61,384.65c3.25,38.66-76.11,41.9-205.64,52.8S226.44,463,223.19,424.36,301.47,317.49,431,306.6,644.36,346,647.61,384.65Z" transform="translate(-218.48 -261.54)"/><path class="cls-3" d="M642.17,385.08c3.23,38.34-75,41.68-202.83,52.43S226.49,462.64,223.27,424.3,300.68,318.46,428.5,307.71,639,346.74,642.17,385.08Z" transform="translate(-218.48 -261.54)"/><path class="cls-4" d="M636.73,385.51c3.2,38-73.9,41.45-200,52.06s-210.17,24.69-213.37-13.33S299.88,319.43,426,308.82,633.54,347.48,636.73,385.51Z" transform="translate(-218.48 -261.54)"/><path class="cls-5" d="M631.3,385.94c3.17,37.71-72.8,41.22-197.21,51.69s-207.48,24.26-210.65-13.45S299.08,320.4,423.5,309.93,628.13,348.23,631.3,385.94Z" transform="translate(-218.48 -261.54)"/><path class="cls-6" d="M625.86,386.37c3.14,37.4-71.69,41-194.4,51.32s-204.8,23.82-207.94-13.58S298.29,321.36,421,311.05,622.71,349,625.86,386.37Z" transform="translate(-218.48 -261.54)"/><path class="cls-7" d="M620.42,386.8c3.12,37.08-70.58,40.77-191.58,50.95s-202.12,23.38-205.24-13.7,73.89-101.72,194.89-111.89S617.3,349.73,620.42,386.8Z" transform="translate(-218.48 -261.54)"/><path class="cls-8" d="M615,387.23c3.09,36.76-69.48,40.54-188.77,50.58S226.77,460.75,223.68,424,296.7,323.3,416,313.27,611.89,350.47,615,387.23Z" transform="translate(-218.48 -261.54)"/><path class="cls-9" d="M609.54,387.66c3.07,36.45-68.37,40.32-186,50.21s-196.75,22.5-199.82-13.94,72.14-99.66,189.73-109.55S606.48,351.22,609.54,387.66Z" transform="translate(-218.48 -261.54)"/><path class="cls-10" d="M604.1,388.09c3,36.13-67.26,40.09-183.14,49.84S226.89,460,223.85,423.87,295.11,325.24,411,315.49,601.07,352,604.1,388.09Z" transform="translate(-218.48 -261.54)"/><path class="cls-11" d="M598.67,388.52c3,35.82-66.16,39.87-180.34,49.47s-191.39,21.63-194.4-14.18,70.38-97.6,184.56-107.2S595.65,352.71,598.67,388.52Z" transform="translate(-218.48 -261.54)"/><path class="cls-12" d="M593.23,389c3,35.49-65.06,39.63-177.53,49.09S227,459.24,224,423.74s69.5-96.56,182-106S590.24,353.46,593.23,389Z" transform="translate(-218.48 -261.54)"/><path class="cls-13" d="M587.79,389.39c3,35.17-63.95,39.4-174.71,48.72s-186,20.75-189-14.43,68.63-95.54,179.39-104.85S584.83,354.21,587.79,389.39Z" transform="translate(-218.48 -261.54)"/><path class="cls-14" d="M582.35,389.82c2.93,34.86-62.84,39.18-171.9,48.35s-183.34,20.31-186.27-14.55S291.92,329.11,401,319.94,579.42,355,582.35,389.82Z" transform="translate(-218.48 -261.54)"/><path class="cls-15" d="M576.91,390.25c2.91,34.54-61.73,38.95-169.09,48S227.16,458.1,224.26,423.56s66.87-93.48,174.22-102.51S574,355.7,576.91,390.25Z" transform="translate(-218.48 -261.54)"/><path class="cls-16" d="M571.47,390.68c2.88,34.23-60.63,38.72-166.27,47.61s-178,19.44-180.86-14.79,66-92.45,171.64-101.33S568.6,356.45,571.47,390.68Z" transform="translate(-218.48 -261.54)"/><path class="cls-17" d="M566,391.11c2.85,33.91-59.53,38.5-163.47,47.24s-175.29,19-178.15-14.91S289.53,332,393.48,323.28,563.18,357.2,566,391.11Z" transform="translate(-218.48 -261.54)"/><path class="cls-18" d="M560.6,391.54c2.82,33.59-58.42,38.27-160.66,46.87s-172.61,18.56-175.43-15S288.74,333,391,324.39,557.77,358,560.6,391.54Z" transform="translate(-218.48 -261.54)"/><path class="cls-19" d="M555.16,392c2.8,33.28-57.31,38-157.84,46.5s-169.93,18.12-172.73-15.16S287.94,334,388.47,325.5,552.36,358.69,555.16,392Z" transform="translate(-218.48 -261.54)"/><path class="cls-20" d="M549.72,392.4c2.77,33-56.21,37.82-155,46.13s-167.25,17.68-170-15.28,62.48-88.33,161.3-96.64S547,359.44,549.72,392.4Z" transform="translate(-218.48 -261.54)"/><path class="cls-21" d="M544.28,392.83c2.75,32.65-55.1,37.59-152.22,45.76s-164.56,17.24-167.31-15.4,61.6-87.3,158.72-95.46S541.54,360.19,544.28,392.83Z" transform="translate(-218.48 -261.54)"/><path class="cls-22" d="M538.84,393.26c2.72,32.33-54,37.36-149.4,45.39s-161.89,16.81-164.6-15.52S285.56,336.86,381,328.84,536.13,360.93,538.84,393.26Z" transform="translate(-218.48 -261.54)"/><path class="cls-23" d="M533.41,393.69c2.69,32-52.89,37.14-146.6,45s-159.2,16.37-161.89-15.64S284.76,337.83,378.46,330,530.71,361.68,533.41,393.69Z" transform="translate(-218.48 -261.54)"/><path class="cls-24" d="M528,394.12c2.66,31.7-51.79,36.91-143.79,44.65S227.67,454.7,225,423s59-84.2,151-91.94S525.3,362.43,528,394.12Z" transform="translate(-218.48 -261.54)"/><path class="cls-25" d="M522.53,394.55c2.64,31.38-50.68,36.69-141,44.28s-153.84,15.49-156.48-15.89,58.09-83.17,148.38-90.77S519.89,363.18,522.53,394.55Z" transform="translate(-218.48 -261.54)"/><path class="cls-26" d="M517.09,395c2.61,31.07-49.57,36.46-138.16,43.91s-151.15,15.05-153.76-16,57.2-82.15,145.79-89.59S514.48,363.92,517.09,395Z" transform="translate(-218.48 -261.54)"/><path class="cls-27" d="M511.65,395.42c2.59,30.74-48.46,36.22-135.35,43.53s-148.47,14.61-151-16.13,56.33-81.12,143.21-88.42S509.07,364.67,511.65,395.42Z" transform="translate(-218.48 -261.54)"/><path class="cls-28" d="M506.21,395.85c2.56,30.42-47.36,36-132.53,43.16s-145.79,14.18-148.35-16.25S280.78,342.67,366,335.51,503.66,365.42,506.21,395.85Z" transform="translate(-218.48 -261.54)"/><path class="cls-29" d="M500.78,396.28c2.53,30.11-46.26,35.77-129.73,42.79S227.94,452.81,225.41,422.7s54.57-79.06,138-86.08S498.24,366.17,500.78,396.28Z" transform="translate(-218.48 -261.54)"/><path class="cls-30" d="M495.34,396.71c2.5,29.79-45.15,35.54-126.92,42.42S228,452.43,225.49,422.63s53.7-78,135.46-84.9S492.83,366.91,495.34,396.71Z" transform="translate(-218.48 -261.54)"/><path class="cls-31" d="M489.9,397.14c2.48,29.48-44,35.32-124.1,42.05s-137.74,12.86-140.22-16.62,52.81-77,132.87-83.72S487.42,367.66,489.9,397.14Z" transform="translate(-218.48 -261.54)"/><path class="cls-32" d="M484.46,397.57c2.45,29.16-42.94,35.09-121.29,41.68s-135.06,12.42-137.51-16.74S277.6,346.55,356,340,482,368.41,484.46,397.57Z" transform="translate(-218.48 -261.54)"/><path class="cls-33" d="M479,398c2.43,28.84-41.83,34.86-118.48,41.31s-132.37,12-134.8-16.86,51.06-74.94,127.71-81.38S476.6,369.15,479,398Z" transform="translate(-218.48 -261.54)"/><path class="cls-34" d="M473.58,398.43c2.4,28.53-40.72,34.64-115.66,40.94s-129.7,11.55-132.1-17S276,348.48,351,342.18,471.19,369.9,473.58,398.43Z" transform="translate(-218.48 -261.54)"/><path class="cls-35" d="M468.15,398.86c2.37,28.21-39.62,34.41-112.86,40.57s-127,11.11-129.38-17.1,49.3-72.88,122.53-79S465.77,370.65,468.15,398.86Z" transform="translate(-218.48 -261.54)"/><path class="cls-36" d="M462.71,399.29c2.34,27.9-38.52,34.18-110,40.2S228.33,450.16,226,422.26s48.42-71.84,120-77.85S460.36,371.4,462.71,399.29Z" transform="translate(-218.48 -261.54)"/><path class="cls-37" d="M457.27,399.72c2.32,27.58-37.41,34-107.23,39.83s-121.65,10.23-124-17.35,47.55-70.81,117.37-76.68S455,372.14,457.27,399.72Z" transform="translate(-218.48 -261.54)"/><path class="cls-38" d="M451.83,400.15c2.29,27.26-36.3,33.73-104.42,39.46s-119,9.79-121.26-17.47,46.67-69.78,114.79-75.51S449.54,372.89,451.83,400.15Z" transform="translate(-218.48 -261.54)"/><path class="cls-39" d="M446.39,400.58c2.27,26.95-35.19,33.51-101.61,39.09S228.5,449,226.24,422.08s45.79-68.75,112.2-74.34S444.13,373.64,446.39,400.58Z" transform="translate(-218.48 -261.54)"/><path class="cls-40" d="M441,401c2.24,26.63-34.09,33.28-98.79,38.72S228.56,448.65,226.32,422s44.91-67.73,109.61-73.17S438.71,374.39,441,401Z" transform="translate(-218.48 -261.54)"/><path class="cls-41" d="M435.52,401.44c2.21,26.32-33,33.05-96,38.35S228.61,448.27,226.4,422s44-66.7,107-72S433.3,375.13,435.52,401.44Z" transform="translate(-218.48 -261.54)"/><path class="cls-42" d="M430.08,401.87c2.18,26-31.88,32.83-93.18,38s-108.23,8-110.42-18,43.16-65.66,104.45-70.81S427.89,375.88,430.08,401.87Z" transform="translate(-218.48 -261.54)"/><path class="cls-43" d="M424.64,402.31c2.16,25.67-30.77,32.59-90.36,37.6s-105.56,7.6-107.71-18.08,42.27-64.63,101.86-69.64S422.48,376.63,424.64,402.31Z" transform="translate(-218.48 -261.54)"/><path class="cls-44" d="M419.2,402.74c2.13,25.36-29.67,32.36-87.55,37.23s-102.87,7.16-105-18.2,41.4-63.6,99.28-68.47S417.07,377.37,419.2,402.74Z" transform="translate(-218.48 -261.54)"/><path class="cls-45" d="M413.76,403.17c2.11,25-28.56,32.14-84.73,36.86s-100.19,6.72-102.3-18.32,40.52-62.57,96.7-67.3S411.66,378.12,413.76,403.17Z" transform="translate(-218.48 -261.54)"/><path class="cls-46" d="M408.32,403.6c2.08,24.73-27.45,31.91-81.92,36.49s-97.51,6.29-99.59-18.44,39.64-61.54,94.11-66.13S406.24,378.87,408.32,403.6Z" transform="translate(-218.48 -261.54)"/><path class="cls-47" d="M402.89,404c2.05,24.41-26.35,31.68-79.12,36.12S229,446,226.9,421.59s38.76-60.52,91.52-64.95S400.83,379.62,402.89,404Z" transform="translate(-218.48 -261.54)"/><path class="cls-48" d="M397.45,404.46c2,24.09-25.25,31.46-76.3,35.75S229,445.62,227,421.52s37.88-59.48,88.94-63.77S395.42,380.36,397.45,404.46Z" transform="translate(-218.48 -261.54)"/><path class="cls-49" d="M392,404.89c2,23.78-24.14,31.23-73.49,35.38s-89.46,5-91.46-18.81,37-58.45,86.36-62.6S390,381.11,392,404.89Z" transform="translate(-218.48 -261.54)"/><path class="cls-50" d="M386.57,405.32c2,23.46-23,31-70.68,35s-86.77,4.53-88.75-18.93S263.27,364,310.92,360,384.6,381.86,386.57,405.32Z" transform="translate(-218.48 -261.54)"/><path class="cls-51" d="M381.13,405.75c1.95,23.15-21.93,30.78-67.86,34.64s-84.1,4.1-86-19.05,35.26-56.39,81.19-60.26S379.19,382.61,381.13,405.75Z" transform="translate(-218.48 -261.54)"/><path class="cls-52" d="M375.69,406.18c1.92,22.83-20.82,30.55-65.05,34.27s-81.41,3.66-83.33-19.17,34.37-55.36,78.6-59.08S373.77,383.35,375.69,406.18Z" transform="translate(-218.48 -261.54)"/><path class="cls-53" d="M370.26,406.61c1.89,22.51-19.72,30.33-62.25,33.9s-78.73,3.22-80.62-19.29,33.49-54.34,76-57.91S368.36,384.1,370.26,406.61Z" transform="translate(-218.48 -261.54)"/><path class="cls-54" d="M364.82,407c1.86,22.2-18.61,30.1-59.43,33.53s-76,2.78-77.92-19.42,32.62-53.3,73.44-56.73S363,384.85,364.82,407Z" transform="translate(-218.48 -261.54)"/><path class="cls-55" d="M359.38,407.47c1.84,21.88-17.51,29.87-56.62,33.16s-73.37,2.34-75.21-19.54,31.74-52.27,70.86-55.56S357.54,385.59,359.38,407.47Z" transform="translate(-218.48 -261.54)"/><path class="cls-56" d="M353.94,407.9c1.81,21.57-16.4,29.65-53.81,32.79s-70.68,1.9-72.49-19.66,30.86-51.24,68.27-54.39S352.13,386.34,353.94,407.9Z" transform="translate(-218.48 -261.54)"/><path class="cls-57" d="M348.5,408.33c1.79,21.25-15.29,29.42-51,32.42s-68,1.47-69.79-19.78,30-50.21,65.68-53.21S346.72,387.09,348.5,408.33Z" transform="translate(-218.48 -261.54)"/><path class="cls-58" d="M343.06,408.77c1.76,20.92-14.18,29.18-48.18,32s-65.32,1-67.08-19.9,29.1-49.18,63.1-52S341.3,387.84,343.06,408.77Z" transform="translate(-218.48 -261.54)"/><path class="cls-59" d="M337.63,409.2c1.73,20.61-13.09,29-45.38,31.67s-62.63.59-64.37-20S256.11,372.7,288.4,370,335.89,388.58,337.63,409.2Z" transform="translate(-218.48 -261.54)"/><path class="cls-60" d="M332.19,409.63c1.7,20.29-12,28.73-42.56,31.3s-60,.15-61.66-20.15,27.34-47.12,57.93-49.69S330.48,389.33,332.19,409.63Z" transform="translate(-218.48 -261.54)"/><path class="cls-61" d="M326.75,410.06c1.68,20-10.87,28.5-39.75,30.93s-57.27-.29-58.95-20.27,26.47-46.09,55.35-48.52S325.07,390.08,326.75,410.06Z" transform="translate(-218.48 -261.54)"/><path class="cls-62" d="M321.31,410.49c1.65,19.66-9.76,28.28-36.94,30.56s-54.59-.73-56.24-20.39,25.59-45.06,52.77-47.34S319.66,390.82,321.31,410.49Z" transform="translate(-218.48 -261.54)"/><path class="cls-63" d="M315.87,410.92c1.63,19.34-8.66,28.05-34.12,30.19S229.84,440,228.21,420.6s24.72-44,50.18-46.17S314.25,391.57,315.87,410.92Z" transform="translate(-218.48 -261.54)"/><path class="cls-64" d="M310.43,411.35c1.6,19-7.55,27.82-31.31,29.82s-49.22-1.6-50.82-20.63,23.83-43,47.59-45S308.83,392.32,310.43,411.35Z" transform="translate(-218.48 -261.54)"/><path class="cls-65" d="M305,411.78c1.57,18.71-6.45,27.6-28.51,29.45s-46.54-2-48.11-20.75,23-42,45-43.83S303.42,393.07,305,411.78Z" transform="translate(-218.48 -261.54)"/><path class="cls-66" d="M299.56,412.21c1.54,18.4-5.34,27.37-25.69,29.08s-43.86-2.48-45.41-20.88,22.08-40.93,42.43-42.65S298,393.81,299.56,412.21Z" transform="translate(-218.48 -261.54)"/><path class="cls-67" d="M294.12,412.64c1.52,18.08-4.24,27.15-22.88,28.71s-41.18-2.92-42.7-21,21.2-39.91,39.85-41.47S292.6,394.56,294.12,412.64Z" transform="translate(-218.48 -261.54)"/><path class="cls-68" d="M288.68,413.07c1.49,17.76-3.13,26.92-20.07,28.34s-38.49-3.36-40-21.12S249,381.41,265.88,380,287.19,395.31,288.68,413.07Z" transform="translate(-218.48 -261.54)"/><path class="cls-69" d="M283.24,413.5c1.47,17.45-2,26.69-17.25,28s-35.82-3.79-37.28-21.24,19.44-37.85,34.67-39.13S281.78,396.06,283.24,413.5Z" transform="translate(-218.48 -261.54)"/><path class="cls-70" d="M277.8,413.93c1.44,17.13-.91,26.47-14.44,27.6s-33.13-4.23-34.57-21.36,18.56-36.82,32.09-38S276.36,396.8,277.8,413.93Z" transform="translate(-218.48 -261.54)"/><path class="cls-71" d="M272.37,414.36c1.41,16.82.18,26.24-11.64,27.23s-30.44-4.67-31.86-21.48,17.69-35.79,29.51-36.79S271,397.55,272.37,414.36Z" transform="translate(-218.48 -261.54)"/><path class="cls-72" d="M266.93,414.79c1.38,16.5,1.29,26-8.82,26.86S230.34,436.54,229,420s16.81-34.75,26.93-35.6S265.54,398.3,266.93,414.79Z" transform="translate(-218.48 -261.54)"/><path class="cls-73" d="M261.49,415.22c1.36,16.18,2.4,25.79-6,26.49S230.4,436.16,229,420s15.93-33.72,24.34-34.43S260.13,399,261.49,415.22Z" transform="translate(-218.48 -261.54)"/><path class="cls-74" d="M256.05,415.66c1.33,15.86,3.51,25.55-3.2,26.11s-22.4-6-23.73-21.85,15-32.7,21.75-33.26S254.72,399.79,256.05,415.66Z" transform="translate(-218.48 -261.54)"/><path class="cls-75" d="M250.61,416.09c1.31,15.54,4.61,25.32-.38,25.74s-19.72-6.42-21-22,14.18-31.67,19.17-32.09S249.3,400.54,250.61,416.09Z" transform="translate(-218.48 -261.54)"/><path class="cls-76" d="M505.26,543.3c10.67,49.92-16.94,81.55-33.94,40.17-7.8-19-38.44-13.47-40.16-33.94a37.17,37.17,0,0,1,33.93-40.16C485.55,507.65,501,523.22,505.26,543.3Z" transform="translate(-218.48 -261.54)"/><circle class="cls-76" cx="154.79" cy="194.39" r="60.53"/><circle class="cls-76" cx="317.85" cy="180.68" r="60.53"/><circle cx="154.79" cy="194.39" r="30.27"/><circle cx="317.85" cy="180.68" r="30.27"/><circle class="cls-77" cx="130.17" cy="184.11" r="15.13"/><circle class="cls-77" cx="336.47" cy="166.76" r="15.13"/></svg>